:SAMPLES-PER-SECOND 24
:FULLY-SPECIFIED
:DEGREES
60
root  18.3301 39.4953 35.8183 -154.123 -6.54541 133.748
RightUpLeg  -40.0929 -41.0063 -27.546
RightLeg  32.4689 -19.9809 -13.4041
RightFoot  -15.7208 -0.210477 -2.71264
RightToes  -2.08645e-008 3.77894e-005 6.81332e-007
Spine  28.1544 -2.05958 13.8248
Spine1  -9.92802 4.4049 -33.3258
HEad  -52.8014 57.84 -49.6111
LeftShoulder1  6.56428 -12.6411 -34.6393
LeftArm  19.5154 -9.76884 -32.0064
LeftForeArm  170.688 -72.8314 -148.998
LeftHand  -0.110132 -4.73367 1.55942
RightShoulder  3.71067 7.21679 28.6629
RightArm  25.0203 19.6952 37.4541
RightForeArm  28.6612 44.2144 8.89363
RightHand  -1.1845 9.21879 -9.75303
LeftUpLeg  -46.3476 23.9005 45.1208
LeftLeg  91.9196 -0.982772 10.1749
LeftFoot  -9.10116 0.207876 -7.85561
LeftToes  1.24767e-006 1.47042e-008 1.32732e-009
61
root  19.2355 39.9338 35.1374 -146.032 -14.6191 130.281
RightUpLeg  -37.285 -44.4593 -27.4993
RightLeg  28.7479 -26.2549 -15.0015
RightFoot  -14.2732 -0.20063 -4.2127
RightToes  -2.08645e-008 3.77894e-005 6.81332e-007
Spine  25.2537 -1.69104 13.6094
Spine1  -10.8102 4.22404 -35.3958
HEad  -53.5345 57.4675 -50.032
LeftShoulder1  6.00638 -12.1388 -32.3962
LeftArm  20.8946 -8.24564 -30.3299
LeftForeArm  173.179 -71.4633 -151.675
LeftHand  -0.0470153 -4.78966 0.831685
RightShoulder  3.63633 7.119 28.2717
RightArm  21.1158 15.3809 36.4946
RightForeArm  30.227 49.1987 10.6772
RightHand  -1.17229 8.15493 -10.3682
LeftUpLeg  -46.3552 25.2199 45.6813
LeftLeg  86.8609 0.0528045 15.4116
LeftFoot  -8.01072 0.189282 -4.82218
LeftToes  1.24767e-006 1.47042e-008 1.32732e-009
62
root  19.7979 40.7483 34.104 -138.036 -22.7739 127.129
RightUpLeg  -29.9897 -45.9913 -27.6886
RightLeg  20.1945 -36.9623 -13.2318
RightFoot  -10.7132 -0.0528187 -3.5682
RightToes  -2.08645e-008 3.77894e-005 6.81332e-007
Spine  21.3225 -1.12335 11.4018
Spine1  -11.1631 3.60533 -33.0991
HEad  -54.7648 56.7002 -50.5537
LeftShoulder1  5.64023 -11.7716 -30.9173
LeftArm  21.977 -4.6618 -28.04
LeftForeArm  175.27 -70.5723 -153.283
LeftHand  0.0875136 -4.98289 -0.676456
RightShoulder  3.71633 7.02467 29.3678
RightArm  16.0361 4.05591 32.8101
RightForeArm  33.2761 58.352 15.3177
RightHand  -1.15611 6.55135 -11.5285
LeftUpLeg  -41.6671 22.9274 47.9239
LeftLeg  73.0777 4.73583 18.1274
LeftFoot  -4.81547 0.22042 -3.36002
LeftToes  1.24767e-006 1.47042e-008 1.32732e-009
63
root  20.3076 41.6355 32.6633 -130.869 -30.8177 123.148
RightUpLeg  -15.4587 -31.979 -34.6137
RightLeg  11.0085 -57.3219 -7.31871
RightFoot  -5.9631 0.0121365 -1.12149
RightToes  -2.08645e-008 3.77894e-005 6.81332e-007
Spine  17.0801 -0.910147 5.79996
Spine1  -9.49894 2.56481 -27.4965
HEad  -56.1581 55.7876 -49.806
LeftShoulder1  5.42819 -11.5664 -30.0019
LeftArm  22.1807 -0.108543 -24.7525
LeftForeArm  175.295 -70.2697 -153.709
LeftHand  0.150331 -5.28165 -1.32401
RightShoulder  3.91275 7.02485 31.265
RightArm  13.6497 -10.1694 29.1455
RightForeArm  37.2657 64.6821 20.2076
RightHand  -1.01618 6.72533 -10.0436
LeftUpLeg  -32.4412 14.5257 51.139
LeftLeg  47.6542 13.6346 15.2131
LeftFoot  -1.45003 0.0620683 -0.561366
LeftToes  1.24767e-006 1.47042e-008 1.32732e-009
64
root  20.4999 42.4582 31.2239 -123.858 -38.2778 117.331
RightUpLeg  -8.28299 -26.4192 -34.5218
RightLeg  10.3633 -47.5203 -8.46242
RightFoot  -1.08216 -0.0567286 0.54769
RightToes  -2.08645e-008 3.77894e-005 6.81332e-007
Spine  13.2067 -1.91397 -0.473162
Spine1  -5.81955 0.732925 -22.0059
HEad  -56.1788 55.6957 -47.5152
LeftShoulder1  5.0539 -11.1711 -28.3827
LeftArm  21.4429 4.11956 -21.6708
LeftForeArm  174.835 -70.2464 -153.686
LeftHand  0.110654 -5.08884 -0.917712
RightShoulder  4.12362 7.09644 33.0128
RightArm  16.1718 -23.5277 25.2359
RightForeArm  37.1093 65.9683 21.7741
RightHand  -0.970075 6.903 -9.4706
LeftUpLeg  -22.9472 8.49687 50.0632
LeftLeg  15.7046 15.0561 10.4293
LeftFoot  -1.42068 0.155149 -1.71978
LeftToes  1.24767e-006 1.47042e-008 1.32732e-009
65
root  20.6897 42.9042 30.1258 -115.552 -45.106 110.405
RightUpLeg  -6.33151 -11.4124 -33.4677
RightLeg  20.7323 -27.9006 -11.3641
RightFoot  1.15853 -0.142738 1.36129
RightToes  -2.08645e-008 3.77894e-005 6.81332e-007
Spine  11.943 -3.34856 -5.63714
Spine1  -3.18493 -1.68338 -16.8953
HEad  -56.5741 55.1471 -47.2693
LeftShoulder1  4.61725 -10.5593 -26.7311
LeftArm  19.7428 6.32903 -19.3098
LeftForeArm  176.707 -69.0681 -155.435
LeftHand  0.108887 -4.76918 -0.949137
RightShoulder  4.2613 7.20015 33.9189
RightArm  21.5184 -35.471 19.9609
RightForeArm  34.9578 65.0562 20.9783
RightHand  -0.847789 7.64416 -7.89147
LeftUpLeg  -22.0098 21.2603 41.1891
LeftLeg  -1.2522 -0.0295462 9.90418
LeftFoot  -2.02672 0.43956 -5.22035
LeftToes  1.24767e-006 1.47042e-008 1.32732e-009
66
root  21.2238 42.2859 29.1275 -104.801 -51.3401 102.067
RightUpLeg  -8.44175 5.63869 -28.623
RightLeg  30.5312 -11.5172 -7.47298
RightFoot  -1.96265 -0.220405 2.52276
RightToes  -2.08645e-008 3.77894e-005 6.81332e-007
Spine  13.1375 -3.44891 -11.3787
Spine1  -1.69395 -3.29566 -11.1897
HEad  -56.8317 52.4852 -47.9867
LeftShoulder1  4.58471 -10.4358 -26.7937
LeftArm  17.0675 3.98279 -17.4426
LeftForeArm  175.244 -68.019 -156.5
LeftHand  0.107965 -4.68389 -0.951156
RightShoulder  4.25518 7.2532 33.6667
RightArm  25.5337 -45.6942 15.7594
RightForeArm  31.3146 61.4768 17.9166
RightHand  -0.884605 8.20929 -7.89937
LeftUpLeg  -25.3916 23.2943 38.7165
LeftLeg  1.87048 5.10508 8.21205
LeftFoot  1.28074 0.449935 -4.13898
LeftToes  1.24767e-006 1.47042e-008 1.32732e-009
67
root  21.4311 41.1984 28.3162 -90.6979 -55.5688 90.3234
RightUpLeg  -7.60571 11.5651 -22.9377
RightLeg  31.0152 -6.1858 -4.21512
RightFoot  -8.07293 -0.0745633 0.211835
RightToes  -2.08645e-008 3.77894e-005 6.81332e-007
Spine  13.5997 -2.61462 -15.8968
Spine1  0.0150119 -3.90641 -5.39298
HEad  -52.7352 50.5617 -43.7349
LeftShoulder1  4.56684 -10.3931 -26.7607
LeftArm  14.6315 -1.50217 -17.9902
LeftForeArm  169.65 -69.5131 -153.974
LeftHand  0.0173131 -4.23805 0.0738813
RightShoulder  4.16555 7.22806 32.9261
RightArm  30.0264 -54.3243 13.0863
RightForeArm  24.4302 55.3837 14.2608
RightHand  -0.70896 7.86806 -6.54511
LeftUpLeg  -27.3407 20.7466 36.6334
LeftLeg  4.85925 11.8088 7.81082
LeftFoot  3.99873 0.55836 -4.3327
LeftToes  1.24767e-006 1.47042e-008 1.32732e-009
68
root  21.2942 40.1415 27.4719 -72.3915 -57.7733 74.6977
RightUpLeg  -3.25703 8.7564 -15.7718
RightLeg  21.7316 -14.8739 -6.40833
RightFoot  -13.9422 -0.352559 -9.91223
RightToes  -2.08645e-008 3.77894e-005 6.81332e-007
Spine  13.0906 -2.87082 -17.1753
Spine1  0.663617 -4.62564 -2.22367
HEad  -47.2129 50.4996 -36.6747
LeftShoulder1  4.11039 -9.5605 -25.3069
LeftArm  13.2106 -5.56824 -21.4721
LeftForeArm  167.84 -71.5261 -150.834
LeftHand  -0.102562 -3.73018 1.56545
RightShoulder  4.15325 7.20918 32.8796
RightArm  38.1209 -60.5669 8.04856
RightForeArm  20.9519 50.3801 11.8991
RightHand  -0.236352 9.27751 -2.31387
LeftUpLeg  -28.1545 19.7936 31.9043
LeftLeg  2.10074 6.06537 6.94469
LeftFoot  1.70992 0.78157 -6.98377
LeftToes  1.24767e-006 1.47042e-008 1.32732e-009
